<svg xmlns="http://www.w3.org/2000/svg" viewBox="380 680 1280 680">
  <path 
    fill="#181818"
    d="M 627.301 695.281 C 662.186 693.173 698.177 694.97 733.159 694.945 C 771.288 694.918 810.179 693.256 848.228 695.107 C 853.394 695.358 859.257 695.575 864.081 697.487 C 871.367 700.375 877.772 705.703 882.949 711.502 C 893.452 723.267 902.78 736.522 912.43 749.007 L 964.748 816.219 L 1146.48 1047.44 L 1192.01 1106.42 C 1201.56 1118.82 1210.76 1132.09 1221.83 1143.16 C 1228.62 1149.98 1236.33 1155.82 1244.73 1160.52 C 1266.95 1172.78 1295.38 1177.11 1319.95 1169.97 C 1332.04 1166.45 1342.79 1160.38 1352.26 1152.1 C 1370.77 1135.91 1385.17 1112.55 1399.89 1092.89 C 1409.6 1079.92 1421.24 1066.57 1428.99 1052.37 C 1436.56 1038.5 1439.06 1021.62 1434.25 1006.39 C 1432.68 1001.44 1430.36 996.843 1427.61 992.448 C 1419.14 978.921 1408.32 966.079 1398.9 953.138 C 1386.3 935.81 1374.19 916.318 1359.62 900.661 C 1352.98 893.519 1345.45 887.346 1336.76 882.86 C 1323.69 876.115 1309.64 873.558 1295.02 874.647 C 1247.02 878.219 1224.86 921.067 1198.69 955.405 C 1194.35 961.104 1188.84 969.362 1181.54 971.317 C 1177.5 972.397 1173.35 971.071 1170 968.761 C 1161.23 962.708 1136.74 929.047 1128.59 918.926 C 1110.78 896.816 1091.39 874.984 1074.91 851.887 C 1072.87 849.022 1068.4 843.001 1068.59 839.554 C 1068.79 835.772 1072.68 830.393 1074.85 827.273 C 1089.78 805.796 1107.19 785.405 1123.3 764.743 C 1137.31 746.774 1150.65 727.636 1165.58 710.478 C 1169.28 706.226 1173.44 702.046 1178.38 699.265 C 1183.85 696.186 1191.06 695.326 1197.28 694.986 C 1209.65 694.31 1222.31 694.854 1234.7 694.877 L 1306.88 695.02 C 1327.24 695.032 1414.09 692.322 1428.67 696.843 C 1435.81 699.056 1442.44 706.002 1447.19 711.635 C 1464.31 731.947 1479.49 754.696 1495.36 776.088 L 1583.93 894.828 L 1633.67 961.158 C 1642.26 972.541 1653.49 984.648 1659.71 997.393 C 1666.74 1011.8 1667.03 1030.95 1661.41 1045.9 C 1654.98 1063.04 1625.6 1097.49 1612.91 1114.29 L 1538.84 1212.99 L 1478.67 1293.59 C 1468.09 1307.75 1457.88 1322.81 1446.35 1336.2 C 1440.58 1342.91 1434.16 1347.21 1426.19 1350.86 C 1423.7 1351.61 1421.26 1352.18 1418.67 1352.52 C 1408.71 1353.83 1397.99 1353.12 1387.92 1353.13 L 1333.21 1353.17 L 1248.29 1353.16 C 1232.69 1353.15 1216.84 1353.7 1201.28 1352.9 C 1194.98 1352.58 1187.03 1351.8 1181.26 1349.15 C 1175.65 1346.57 1169.62 1340.18 1165.53 1335.59 C 1152.15 1320.59 1139.95 1304.22 1127.31 1288.58 L 1057.11 1202.14 L 887.868 996.154 L 839.896 936.409 C 827.494 920.936 815.275 902.204 799.312 890.351 C 782.002 877.468 760.257 872.046 738.925 875.293 C 699.909 881.297 680.659 914.836 659.002 943.879 C 647.645 959.11 635.653 973.96 624.588 989.393 C 615.391 1002.22 610.5 1016.36 613.477 1032.28 C 614.516 1037.83 616.592 1043.22 619.309 1048.16 C 628.176 1064.3 640.633 1079.41 651.449 1094.34 C 663.54 1111.04 675.194 1128.8 688.699 1144.35 C 693.712 1150.13 699.397 1155.67 705.719 1160 C 718.345 1168.65 733.77 1172.99 748.994 1173.28 C 822.526 1174.7 841.891 1085.34 867.945 1081.51 C 871.733 1080.97 875.577 1081.98 878.614 1084.3 C 889.262 1092.37 920.247 1133.17 930.797 1146.01 C 945.055 1163.37 961.186 1180.51 973.998 1198.88 C 976.993 1203.18 979.519 1207.55 980.12 1212.81 C 978.794 1216.45 977.014 1219.49 974.779 1222.62 C 958.547 1245.39 939.646 1267.01 922.279 1288.96 C 909.124 1305.59 896.62 1324.31 881.827 1339.44 C 869.937 1351.6 859.769 1353.02 843.57 1353.12 L 695.789 1353.14 C 678.702 1353.13 644.646 1354.95 629.482 1352.43 C 623.673 1351.47 614.925 1348.1 610.753 1343.75 C 596.062 1328.44 583.819 1310.21 571.1 1293.24 L 512.057 1214.48 L 434.395 1111.37 C 420.679 1093.24 405.797 1075.27 393.132 1056.41 C 389.995 1051.74 387.607 1046.01 386.144 1040.56 C 381.767 1024.25 383.871 1008.61 392.112 993.895 C 401.632 976.902 415.683 961.127 427.45 945.493 L 494.773 855.878 L 566.896 759.436 C 579.134 743.056 591.039 724.672 604.92 709.729 C 611.413 702.738 617.973 697.889 627.301 695.281 z"
  />
</svg>
